<svg width="147" height="171" viewBox="0 0 147 171" fill="none" xmlns="http://www.w3.org/2000/svg">
<path d="M1.5552 128.198L1.57455 128.21L72.7813 170.747C72.788 170.751 72.7946 170.749 72.8007 170.753C72.8033 170.754 72.802 170.757 72.8047 170.759C72.9888 170.865 73.1964 170.916 73.4006 170.916C73.6041 170.916 73.8123 170.865 73.9965 170.759C73.9992 170.758 73.9978 170.753 74.0012 170.751C74.0058 170.749 74.0118 170.751 74.0165 170.747L145.442 128.198C145.802 127.978 146.03 127.587 146.03 127.159C146.027 127.018 145.88 126.946 145.834 126.819L145.834 43.1171C145.834 42.69 145.607 42.2976 145.238 42.0781L74.0129 0.135061C74.0095 0.133059 74.0048 0.137063 74.0015 0.135061C73.9988 0.133726 74.0002 0.128388 73.9968 0.127053C73.8113 0.0209502 73.6065 0.131724 73.4009 0.131057C73.1954 0.131724 72.9885 0.0209498 72.805 0.127053C72.8023 0.128388 72.8037 0.133726 72.8003 0.135061C72.797 0.137063 72.7923 0.133059 72.789 0.135061L1.57712 42.0695C1.57645 42.0702 1.57645 42.0689 1.57578 42.0695C1.57512 42.0702 1.57512 42.0702 1.57512 42.0709L1.56444 42.0775C1.19609 42.2971 0.972534 42.6888 0.972534 43.1165V127.161C0.972534 127.224 1.05061 127.253 1.05996 127.314C1.11267 127.663 1.24613 128.009 1.55576 128.196L1.5552 128.198ZM74.6052 133.476V86.1259L114.011 62.4791V109.376L74.6052 133.476ZM32.7921 62.4843L72.1982 86.1259V133.467L32.7921 109.253V62.4843ZM73.4009 84.04L33.9264 60.354L73.4009 36.6679L112.874 60.3505L73.4009 84.04ZM116.504 109.171V60.9997L143.42 45.2243V124.944L116.504 109.171ZM115.305 58.907L74.6043 34.4847V3.28196L142.251 43.1152L115.305 58.907ZM3.37874 45.2197L30.2987 60.9951V109.291L3.37874 125.063V45.2197ZM24.9089 115.239L30.9868 111.678L72.1986 136.406V167.592L4.54007 127.176L24.9089 115.239ZM74.606 136.407L115.816 111.679L142.358 127.232L74.6077 167.595L74.606 136.407ZM72.199 3.28179V34.4845L31.4962 58.9068L30.9604 58.5932L4.55123 43.1154L72.199 3.28179Z" fill="#045781"/>
</svg>
