<svg width="159" height="157" viewBox="0 0 159 157" fill="none" xmlns="http://www.w3.org/2000/svg">
<path d="M159 77.9569C159 71.8666 154.036 66.994 147.832 66.994C144.641 66.994 141.983 68.2118 139.856 70.3003C137.197 69.0825 134.006 68.2125 130.639 67.5163C133.83 57.0758 135.424 47.3313 134.007 39.8489C134.716 39.5011 135.247 38.9788 135.779 38.4566C140.211 34.1063 140.211 27.146 135.779 22.7958C133.653 20.7079 130.639 19.4894 127.803 19.4894C124.967 19.4894 122.131 20.5334 119.826 22.7958C119.117 23.4919 118.586 24.1881 118.231 24.8836C110.431 23.4913 101.037 24.8836 91.8193 27.3199C90.933 23.6658 89.8696 20.3595 88.2742 17.7494C89.8696 15.8354 90.7559 13.573 90.7559 10.9629C90.7559 4.87254 85.7924 0 79.5884 0C74.4478 0 70.1934 3.30632 68.7758 7.83041C58.6724 8.87435 47.1504 15.3131 38.4648 22.2734C34.0334 18.6194 27.4751 18.7933 23.2206 22.7957C18.7892 27.1459 18.7892 34.1063 23.2206 38.2825C17.5487 46.6352 13.4715 56.5535 11.5218 66.994H11.1675C4.96351 66.994 0 71.8666 0 77.9569C0 83.8733 4.78566 88.7451 10.8126 88.9197C12.2309 99.708 16.1303 109.801 22.3343 118.501C18.7892 122.851 19.1434 129.116 23.2206 133.118C27.2978 137.121 33.6789 137.468 38.1102 133.988C47.3273 140.426 57.7858 144.081 68.244 145.473C68.4211 151.389 73.3846 156.087 79.4115 156.087C85.6155 156.087 90.579 151.214 90.579 145.124V144.95C101.392 143.036 111.673 139.034 120.181 133.64C122.308 135.554 124.967 136.597 127.803 136.597C130.639 136.597 133.475 135.554 135.78 133.291C139.857 129.289 140.211 123.024 136.666 118.674C147.479 105.45 150.67 95.5312 151.024 88.5708C155.632 87.1796 159 83.0031 159 77.9569ZM121.067 24.0141C122.839 22.274 125.144 21.2301 127.803 21.2301C130.285 21.2301 132.766 22.274 134.539 24.0141C136.312 25.7541 137.375 28.0166 137.375 30.6267C137.375 33.063 136.312 35.4992 134.539 37.2393C132.766 38.9794 130.462 40.0233 127.803 40.0233C125.321 40.0233 122.839 38.9794 121.067 37.2393C117.345 33.5847 117.345 27.6681 121.067 24.0141ZM117.345 26.4503C115.749 30.4528 116.635 35.1508 119.826 38.2832C121.953 40.3711 124.967 41.5896 127.803 41.5896C129.398 41.5896 130.816 41.2418 132.234 40.7195C133.298 47.6799 131.88 57.0764 128.689 67.1689C118.408 65.6027 105.468 66.2988 92.1741 67.865C93.9467 53.5966 94.4788 39.8496 92.3513 29.235C101.746 26.6243 110.432 25.4064 117.345 26.4503ZM39.174 117.631C34.9196 113.455 28.0065 113.281 23.7526 117.283C17.7257 108.931 14.0034 99.3604 12.7629 88.9198C17.1943 88.3976 20.9166 85.2658 22.1578 81.0894C29.7802 80.5672 40.5926 78.4793 53.1779 76.2169C64.6996 74.1291 77.6395 71.6928 90.2247 69.9527C88.275 85.6135 85.0841 101.622 82.4253 114.499C80.6527 123.026 79.4122 129.29 78.703 133.988C73.3853 134.51 69.3081 138.512 68.5996 143.559C58.3173 142.341 48.3908 138.861 39.5279 132.77C43.6051 128.42 43.4276 121.807 39.174 117.631ZM90.2241 68.0385C77.4619 69.6047 64.3445 72.041 52.6455 74.3027C40.4146 76.5651 29.9566 78.479 22.3345 79.1752V77.9574C22.3345 74.3033 20.5619 71.1709 17.726 69.0831C31.1974 56.3801 63.2811 37.4134 90.2243 29.583C92.3511 40.1968 91.8196 53.9423 90.2241 68.0385ZM80.2979 133.988C81.1842 128.594 82.6025 121.633 84.0201 114.847C86.679 101.274 90.047 85.2654 91.9967 69.6046C105.291 67.8645 118.054 67.1683 128.157 68.7345C119.649 94.4879 101.037 125.113 88.4516 138.338C86.5019 135.902 83.4886 134.162 80.2979 133.988ZM24.639 39.501C29.0704 42.6335 35.2745 42.285 39.1738 38.4571C43.4282 34.2807 43.6053 27.8427 39.7058 23.4923C48.0366 16.8797 58.8496 10.7893 68.4216 9.57157C68.4216 10.0938 68.2444 10.4416 68.2444 10.9639C68.2444 17.0542 73.2079 21.9267 79.4119 21.9267C82.2479 21.9267 84.9068 20.8828 86.8565 19.1427C88.097 21.7529 89.1611 24.5369 89.8695 27.8432C79.7662 30.8011 70.0167 34.9774 63.2809 38.1099C44.6689 46.9842 25.8796 58.991 16.3077 68.0394C15.4214 67.5172 14.358 67.1694 13.2946 66.9955C15.2449 57.0761 19.1442 47.6794 24.639 39.501ZM1.77278 77.957C1.77278 72.9106 6.02711 68.7342 11.1677 68.7342C16.3083 68.7342 20.5627 72.9106 20.5627 77.957C20.5627 78.6532 20.5627 79.1748 20.3855 79.871V80.0449C19.4992 84.2212 15.5999 87.3529 11.1684 87.3529C6.02723 87.1796 1.77278 83.0034 1.77278 77.957ZM134.361 131.9C132.589 133.64 130.284 134.684 127.625 134.684C125.144 134.684 122.84 133.814 121.244 132.074C121.244 131.9 121.244 131.9 121.067 131.726C120.89 131.552 120.713 131.552 120.713 131.378C117.522 127.897 117.522 122.329 121.067 118.849C122.84 117.109 125.144 116.065 127.803 116.065C130.285 116.065 132.767 117.109 134.539 118.849C136.312 120.589 137.375 122.852 137.375 125.462C137.375 128.072 136.311 130.16 134.361 131.9ZM135.425 117.283C133.298 115.369 130.639 114.325 127.802 114.325C124.966 114.325 122.131 115.369 119.826 117.632C115.749 121.634 115.394 127.898 118.94 132.248C110.786 137.642 100.859 141.471 90.5784 143.211C90.4012 141.993 90.0464 140.775 89.3378 139.731C101.214 127.376 121.244 95.8807 129.93 69.0833C133.121 69.6055 135.957 70.4756 138.616 71.5195C137.375 73.2596 136.489 75.522 136.489 77.9576C136.489 84.0479 141.452 88.9205 147.656 88.9205C148.188 88.9205 148.72 88.9204 149.075 88.7466C148.542 98.142 142.338 108.757 135.425 117.283Z" fill="#045781"/>
</svg>
